HIERARCHY
ROOT Hips
{
  OFFSET 5.80788e-005 67.184 3.4734
  CHANNELS 6 Xposition Yposition Zposition Zrotation Xrotation Yrotation
  JOINT Chest
  {
    OFFSET 0 8.7983 -4.7612
    CHANNELS 3 Zrotation Xrotation Yrotation
    JOINT Chest2
    {
      OFFSET 0 8.0291 0.4195
      CHANNELS 3 Zrotation Xrotation Yrotation
      JOINT Chest3
      {
        OFFSET 0 9.9351 -2.2114
        CHANNELS 3 Zrotation Xrotation Yrotation
        JOINT Neck
        {
          OFFSET 0 22.3885 -0.4656
          CHANNELS 3 Zrotation Xrotation Yrotation
          JOINT Head
          {
            OFFSET -0.0001 12.643 3.4389
            CHANNELS 3 Zrotation Xrotation Yrotation
            End Site
            {
              OFFSET 0.0001 17.6655 0.5274
            }
          }
        }
        JOINT LeftCollar
        {
          OFFSET 2.2603 21.606 7.4023
          CHANNELS 3 Zrotation Xrotation Yrotation
          JOINT LeftShoulder
          {
            OFFSET 13.5163 -1.1332 -5.0146
            CHANNELS 3 Zrotation Xrotation Yrotation
            JOINT LeftElbow
            {
              OFFSET -0.0995 -28.05 -0.2431
              CHANNELS 3 Zrotation Xrotation Yrotation
              JOINT LeftWrist
              {
                OFFSET 0.0679 -23.3996 -0.1402
                CHANNELS 3 Zrotation Xrotation Yrotation
                JOINT LeftFinger1
                {
                  OFFSET 0.7932 -9.069 2.5189
                  CHANNELS 3 Zrotation Xrotation Yrotation
                  JOINT LeftFinger11
                  {
                    OFFSET -0.8272 -3.3923 0.5977
                    CHANNELS 3 Zrotation Xrotation Yrotation
                    JOINT LeftFinger12
                    {
                      OFFSET -0.5649 -2.3158 0.4082
                      CHANNELS 3 Zrotation Xrotation Yrotation
                      End Site
                      {
                        OFFSET -0.4919 -1.6479 0.2673
                      }
                    }
                  }
                }
                JOINT LeftFinger2
                {
                  OFFSET 0.9159 -9.2044 0.2193
                  CHANNELS 3 Zrotation Xrotation Yrotation
                  JOINT LeftFinger21
                  {
                    OFFSET 0.0117 -4.1944 -0.0248
                    CHANNELS 3 Zrotation Xrotation Yrotation
                    JOINT LeftFinger22
                    {
                      OFFSET 0.0071 -2.3249 -0.0142
                      CHANNELS 3 Zrotation Xrotation Yrotation
                      End Site
                      {
                        OFFSET -0.1475 -2.0882 0.0028
                      }
                    }
                  }
                }
                JOINT LeftFinger3
                {
                  OFFSET 0.6113 -8.7231 -2.0637
                  CHANNELS 3 Zrotation Xrotation Yrotation
                  JOINT LeftFinger31
                  {
                    OFFSET -0.1927 -3.8059 -0.2383
                    CHANNELS 3 Zrotation Xrotation Yrotation
                    JOINT LeftFinger32
                    {
                      OFFSET -0.1091 -2.1688 -0.1362
                      CHANNELS 3 Zrotation Xrotation Yrotation
                      End Site
                      {
                        OFFSET -0.2358 -1.9176 -0.0906
                      }
                    }
                  }
                }
                JOINT LeftFinger4
                {
                  OFFSET -0.6151 -8.0947 -3.5641
                  CHANNELS 3 Zrotation Xrotation Yrotation
                  JOINT LeftFinger41
                  {
                    OFFSET -0.4882 -2.341 -0.6462
                    CHANNELS 3 Zrotation Xrotation Yrotation
                    JOINT LeftFinger42
                    {
                      OFFSET -0.3575 -1.7167 -0.4742
                      CHANNELS 3 Zrotation Xrotation Yrotation
                      End Site
                      {
                        OFFSET -0.4187 -1.5237 -0.3496
                      }
                    }
                  }
                }
                JOINT LeftFinger0
                {
                  OFFSET -1.42 -1.8761 1.4223
                  CHANNELS 3 Zrotation Xrotation Yrotation
                  JOINT LeftFinger01
                  {
                    OFFSET -1.1471 -3.4929 2.6334
                    CHANNELS 3 Zrotation Xrotation Yrotation
                    JOINT LeftFinger02
                    {
                      OFFSET -0.823 -2.3 1.6571
                      CHANNELS 3 Zrotation Xrotation Yrotation
                      End Site
                      {
                        OFFSET -0.5822 -1.6914 1.1582
                      }
                    }
                  }
                }
              }
            }
          }
        }
        JOINT RightCollar
        {
          OFFSET -2.2603 21.606 7.4023
          CHANNELS 3 Zrotation Xrotation Yrotation
          JOINT RightShoulder
          {
            OFFSET -13.5187 -1.1334 -5.0155
            CHANNELS 3 Zrotation Xrotation Yrotation
            JOINT RightElbow
            {
              OFFSET 0.0994 -28.0499 -0.2431
              CHANNELS 3 Zrotation Xrotation Yrotation
              JOINT RightWrist
              {
                OFFSET -0.0679 -23.3996 -0.1402
                CHANNELS 3 Zrotation Xrotation Yrotation
                JOINT RightFinger1
                {
                  OFFSET -0.7932 -9.0691 2.5189
                  CHANNELS 3 Zrotation Xrotation Yrotation
                  JOINT RightFinger11
                  {
                    OFFSET 0.8272 -3.3923 0.5977
                    CHANNELS 3 Zrotation Xrotation Yrotation
                    JOINT RightFinger12
                    {
                      OFFSET 0.565 -2.3158 0.4082
                      CHANNELS 3 Zrotation Xrotation Yrotation
                      End Site
                      {
                        OFFSET 0.4919 -1.6479 0.2673
                      }
                    }
                  }
                }
                JOINT RightFinger2
                {
                  OFFSET -0.916 -9.2044 0.2193
                  CHANNELS 3 Zrotation Xrotation Yrotation
                  JOINT RightFinger21
                  {
                    OFFSET -0.0117 -4.1944 -0.0248
                    CHANNELS 3 Zrotation Xrotation Yrotation
                    JOINT RightFinger22
                    {
                      OFFSET -0.0071 -2.3249 -0.0142
                      CHANNELS 3 Zrotation Xrotation Yrotation
                      End Site
                      {
                        OFFSET 0.1475 -2.0882 0.0028
                      }
                    }
                  }
                }
                JOINT RightFinger3
                {
                  OFFSET -0.6113 -8.7231 -2.0637
                  CHANNELS 3 Zrotation Xrotation Yrotation
                  JOINT RightFinger31
                  {
                    OFFSET 0.1927 -3.8059 -0.2383
                    CHANNELS 3 Zrotation Xrotation Yrotation
                    JOINT RightFinger32
                    {
                      OFFSET 0.1091 -2.1688 -0.1362
                      CHANNELS 3 Zrotation Xrotation Yrotation
                      End Site
                      {
                        OFFSET 0.2358 -1.9176 -0.0906
                      }
                    }
                  }
                }
                JOINT RightFinger4
                {
                  OFFSET 0.6151 -8.0947 -3.564
                  CHANNELS 3 Zrotation Xrotation Yrotation
                  JOINT RightFinger41
                  {
                    OFFSET 0.4882 -2.341 -0.6462
                    CHANNELS 3 Zrotation Xrotation Yrotation
                    JOINT RightFinger42
                    {
                      OFFSET 0.3574 -1.7166 -0.4742
                      CHANNELS 3 Zrotation Xrotation Yrotation
                      End Site
                      {
                        OFFSET 0.4187 -1.5237 -0.3496
                      }
                    }
                  }
                }
                JOINT RightFinger0
                {
                  OFFSET 1.4199 -1.8761 1.4221
                  CHANNELS 3 Zrotation Xrotation Yrotation
                  JOINT RightFinger01
                  {
                    OFFSET 1.1472 -3.4929 2.6336
                    CHANNELS 3 Zrotation Xrotation Yrotation
                    JOINT RightFinger02
                    {
                      OFFSET 0.8229 -2.3 1.6571
                      CHANNELS 3 Zrotation Xrotation Yrotation
                      End Site
                      {
                        OFFSET 0.5822 -1.6914 1.1582
                      }
                    }
                  }
                }
              }
            }
          }
        }
      }
    }
  }
  JOINT RightHip
  {
    OFFSET -9.412 3.9771 -0.7758
    CHANNELS 3 Zrotation Xrotation Yrotation
    JOINT RightKnee
    {
      OFFSET -0.7531 -40.938 0
      CHANNELS 3 Zrotation Xrotation Yrotation
      JOINT RightAnkle
      {
        OFFSET 0 -40.1986 0
        CHANNELS 3 Zrotation Xrotation Yrotation
        JOINT RightToe
        {
          OFFSET 0 -4.4182 9.239
          CHANNELS 3 Zrotation Xrotation Yrotation
          End Site
          {
            OFFSET 0 0 6.1981
          }
        }
      }
    }
  }
  JOINT LeftHip
  {
    OFFSET 9.4119 3.9773 -0.7758
    CHANNELS 3 Zrotation Xrotation Yrotation
    JOINT LeftKnee
    {
      OFFSET 0.7532 -40.9383 0
      CHANNELS 3 Zrotation Xrotation Yrotation
      JOINT LeftAnkle
      {
        OFFSET 0 -40.1986 0
        CHANNELS 3 Zrotation Xrotation Yrotation
        JOINT LeftToe
        {
          OFFSET 0 -4.4182 9.239
          CHANNELS 3 Zrotation Xrotation Yrotation
          End Site
          {
            OFFSET 0 0 6.1981
          }
        }
      }
    }
  }
}
MOTION
Frames:	5
Frame Time:	0.0333333
-0.00339369 4.21212 6.97464 180 -74.9926 180 -0.266271 5.22034 -0.356466 -0.50292 10.4423 -0.692793 -0.502921 10.4423 -0.692795 0.943799 -4.23353 -0.03035 -5.34549e-007 15.0926 3.33099e-007 -1.89686 -8.76963 -23.5584 2.21664 18.351 -6.43359 -5.52953 0.269588 19.8784 19.3233 -24.264 14.8785 0 0 -1.19271e-015 -5.51738e-033 -7.95139e-016 -3.97569e-016 -2.75869e-033 -7.95139e-016 -1.98785e-016 0 0 -1.19271e-015 -0.0128239 0.00232221 9.07478e-005 1.49996e-006 -4.95116e-007 -2.17521e-006 0 0 -1.19271e-015 -0.0160199 0.00298857 0.000859893 1.81954e-006 1.57446e-006 2.95949e-006 0 0 -1.19271e-015 -0.0125894 0.00311275 0.00281445 -1.41927e-006 9.81744e-006 -4.41685e-006 0 0 -1.19271e-015 -5.51738e-033 -7.95139e-016 -3.97569e-016 -2.75869e-033 -7.95139e-016 -1.98785e-016 19.0167 -4.46607 28.6421 -29.979 -13.9467 4.62966 26.1445 -15.0752 -37.1301 30.3472 9.94243 22.2932 3.18055e-015 6.36111e-015 3.18055e-015 -1.03921e-005 -3.53706e-006 6.27539e-006 -9.54166e-015 -6.36111e-015 3.18055e-015 3.18055e-015 6.36111e-015 3.18055e-015 0.0129494 0.00231313 -9.42743e-005 1.86888e-007 1.70712e-006 1.46818e-006 3.18055e-015 6.36111e-015 3.18055e-015 0.0163143 0.00303931 -0.000876774 7.06225e-031 6.36111e-015 -6.36111e-015 3.18055e-015 6.36111e-015 3.18055e-015 0.0146197 0.00368829 -0.00327591 3.73656e-007 -5.39083e-006 2.93647e-006 3.18055e-015 6.36111e-015 3.18055e-015 -1.03921e-005 -3.53706e-006 6.27539e-006 -9.54166e-015 -6.36111e-015 3.18055e-015 -13.6287 -23.8547 -15.1635 -172.477 63.207 171.001 -11.2316 1.67475 0.10813 9.81697e-028 3.53694e-011 -1.59028e-015 17.4197 -32.2954 20.3005 173.367 47.5238 -170.98 13.6289 -0.220998 0.678053 -1.86807e-007 -4.01407e-007 -1.6788e-006 
-0.0033937 4.21211 6.97464 -180 -74.9926 -180 -0.26606 5.26587 -0.358021 -0.502112 10.5333 -0.695802 -0.502113 10.5333 -0.695804 0.943651 -4.00567 -0.0341633 -5.51908e-007 15.366 -1.98439e-008 -1.76754 -8.98681 -23.5872 2.2166 18.3511 -6.43356 -5.5295 0.26959 19.8784 17.9702 -24.4459 14.8116 -1.59028e-015 0 -0 -1.59028e-015 7.95139e-016 3.97569e-016 -1.59028e-015 7.95139e-016 5.96354e-016 -1.59028e-015 0 -0 -0.0128437 0.00231094 9.01493e-005 1.65644e-006 -1.02767e-006 5.94167e-007 -1.59028e-015 0 -0 -0.0160252 0.00298711 0.000855522 -1.59028e-015 7.95139e-016 -0 -1.59028e-015 0 -0 -0.0125779 0.00312806 0.00282346 2.029e-006 -8.317e-007 3.38453e-006 -1.59028e-015 0 -0 -1.59028e-015 7.95139e-016 3.97569e-016 -1.59028e-015 7.95139e-016 5.96354e-016 19.0025 -4.68743 28.7204 -29.9415 -13.7342 4.64072 26.1443 -15.0752 -37.1301 30.0844 10.1211 22.1642 -9.54166e-015 3.18055e-015 -0 5.7361e-006 1.32476e-006 1.28383e-006 -3.18055e-015 -1.59028e-015 3.18055e-015 -9.54166e-015 3.18055e-015 -0 0.0129567 0.00232296 -8.51495e-005 5.19609e-006 -1.26141e-006 -3.13972e-006 -9.54166e-015 3.18055e-015 -0 0.0163312 0.00304167 -0.000873771 -3.00218e-006 -1.0613e-006 -1.18526e-005 -9.54166e-015 3.18055e-015 -0 0.014593 0.00368911 -0.00326795 -9.54166e-015 0 3.18055e-015 -9.54166e-015 3.18055e-015 -0 5.7361e-006 1.32476e-006 1.28383e-006 -3.18055e-015 -1.59028e-015 3.18055e-015 -13.4107 -23.8896 -14.9465 -172.477 63.2072 170.999 -11.0187 1.69611 -0.0119568 1.0479e-007 1.66494e-008 -2.00147e-008 17.0701 -32.3616 19.9723 173.368 47.5237 -170.975 13.3195 -0.199458 0.80102 -1.98785e-016 -7.95139e-016 1.59028e-015 
-0.00339366 4.2121 6.97464 180 -74.9926 180 -0.265867 5.30169 -0.359228 -0.501424 10.6049 -0.698138 -0.501425 10.6049 -0.698141 0.94356 -3.82655 -0.0371561 2.08731e-007 15.581 2.0797e-007 -1.66585 -9.15769 -23.6094 2.21659 18.351 -6.43358 -5.52953 0.26959 19.8784 16.9019 -24.5882 14.7551 -5.51738e-033 1.59028e-015 1.98785e-016 5.51738e-033 1.59028e-015 -1.98785e-016 0 1.59028e-015 -0 -5.51738e-033 1.59028e-015 1.98785e-016 -0.0128303 0.00233103 8.1329e-005 -3.18055e-015 0 -3.97569e-016 -5.51738e-033 1.59028e-015 1.98785e-016 -0.0160648 0.00300239 0.000857228 -1.59028e-015 -7.95139e-016 -0 -5.51738e-033 1.59028e-015 1.98785e-016 -0.0125688 0.00311893 0.00282493 3.18055e-015 -7.95139e-016 -7.95139e-016 -5.51738e-033 1.59028e-015 1.98785e-016 5.51738e-033 1.59028e-015 -1.98785e-016 0 1.59028e-015 -0 18.9915 -4.86162 28.7819 -29.9121 -13.5671 4.64928 26.1442 -15.0753 -37.13 29.8778 10.262 22.0632 -3.18055e-015 4.77083e-015 -3.18055e-015 -6.36111e-015 1.59028e-015 -6.36111e-015 -1.27222e-014 1.59028e-015 -0 -3.18055e-015 4.77083e-015 -3.18055e-015 0.0129356 0.00230324 -8.67132e-005 9.38658e-006 1.10134e-005 -1.85598e-006 -3.18055e-015 4.77083e-015 -3.18055e-015 0.0163328 0.00303699 -0.000870516 -7.06225e-031 -6.36111e-015 -6.36111e-015 -3.18055e-015 4.77083e-015 -3.18055e-015 0.0145803 0.00367872 -0.00325988 -1.59028e-014 -3.18055e-015 1.27222e-014 -3.18055e-015 4.77083e-015 -3.18055e-015 -6.36111e-015 1.59028e-015 -6.36111e-015 -1.27222e-014 1.59028e-015 -0 -13.2391 -23.9169 -14.7757 -172.477 63.2071 170.998 -10.8513 1.71258 -0.10644 1.98785e-016 -2.54343e-006 3.18055e-015 16.7949 -32.4117 19.7138 173.367 47.5242 -170.971 13.0762 -0.183029 0.897833 -5.30399e-008 -4.1076e-007 5.81349e-009 
-0.00339366 4.2121 6.97464 -180 -74.9926 -180 -0.265659 5.3372 -0.360417 -0.500705 10.6759 -0.700443 -0.500706 10.676 -0.700444 0.943484 -3.64882 -0.0401284 1.6785e-007 15.7942 -1.97413e-007 -1.56502 -9.32716 -23.6312 2.2166 18.351 -6.43357 -5.5295 0.269613 19.8784 15.839 -24.7287 14.6959 1.59028e-015 3.97569e-015 3.97569e-016 1.59028e-015 3.18055e-015 3.97569e-016 1.59028e-015 2.38542e-015 3.97569e-016 1.59028e-015 3.97569e-015 3.97569e-016 -0.0128045 0.00232814 9.66372e-005 -4.77083e-015 0 3.97569e-016 1.59028e-015 3.97569e-015 3.97569e-016 -0.0160649 0.00300448 0.000861541 2.75869e-033 -7.95139e-016 1.98785e-016 1.59028e-015 3.97569e-015 3.97569e-016 -0.012607 0.00313923 0.00282561 1.65521e-032 -2.38542e-015 3.97569e-016 1.59028e-015 3.97569e-015 3.97569e-016 1.59028e-015 3.18055e-015 3.97569e-016 1.59028e-015 2.38542e-015 3.97569e-016 18.9808 -5.03427 28.8428 -29.883 -13.4013 4.65771 26.1441 -15.0754 -37.13 29.6732 10.4021 21.9637 -1.27222e-014 1.59028e-015 1.27222e-014 1.30835e-005 6.22503e-006 -4.20106e-007 -1.10647e-005 -4.75486e-006 3.48938e-007 -1.27222e-014 1.59028e-015 1.27222e-014 0.0129351 0.00231371 -8.37139e-005 -8.21516e-006 3.08793e-006 1.00359e-006 -1.27222e-014 1.59028e-015 1.27222e-014 0.0163063 0.00302967 -0.000865222 5.545e-006 -1.90843e-006 -4.66636e-006 -1.27222e-014 1.59028e-015 1.27222e-014 0.014574 0.00367237 -0.0032534 -3.18055e-015 0 -9.54166e-015 -1.27222e-014 1.59028e-015 1.27222e-014 1.30835e-005 6.22503e-006 -4.20106e-007 -1.10647e-005 -4.75486e-006 3.48938e-007 -13.0688 -23.9432 -14.6062 -172.477 63.2071 170.997 -10.6853 1.72868 -0.200214 2.2106e-007 -8.28814e-007 4.96182e-007 16.5211 -32.4615 19.4568 173.368 47.5237 -170.967 12.8348 -0.167087 0.993932 -9.34165e-008 -4.15095e-007 -8.39398e-007 
-0.00339365 4.2121 6.97464 -180 -74.9926 -180 -0.26522 5.37274 -0.361316 -0.499547 10.747 -0.702185 -0.499548 10.747 -0.702187 0.943427 -3.47112 -0.0430981 -1.71005e-007 16.0075 1.65223e-008 -1.46419 -9.49665 -23.6526 2.21656 18.351 -6.43354 -5.52948 0.26963 19.8784 14.7728 -24.8685 14.6336 -3.18055e-015 -2.38542e-015 9.93923e-016 -1.59028e-015 -7.95139e-016 3.97569e-016 -0 0 5.96354e-016 -3.18055e-015 -2.38542e-015 9.93923e-016 -0.0128285 0.00232401 8.1592e-005 -0 -7.95139e-016 -0 -3.18055e-015 -2.38542e-015 9.93923e-016 -0.0160543 0.00300548 0.000855987 -5.51738e-033 -7.95139e-016 -3.97569e-016 -3.18055e-015 -2.38542e-015 9.93923e-016 -0.0125558 0.00310711 0.00282006 -1.59028e-015 -1.59028e-015 1.98785e-016 -3.18055e-015 -2.38542e-015 9.93923e-016 -1.59028e-015 -7.95139e-016 3.97569e-016 -0 0 5.96354e-016 18.9702 -5.20697 28.9038 -29.8544 -13.2358 4.66591 26.1444 -15.0752 -37.13 29.4686 10.5426 21.8645 -3.18055e-015 -1.59028e-015 -3.18055e-015 -3.72778e-006 -8.86996e-006 3.0688e-006 -6.36111e-015 1.59028e-015 -0 -3.18055e-015 -1.59028e-015 -3.18055e-015 0.0129301 0.00231207 -8.24241e-005 3.18055e-015 1.59028e-015 -6.36111e-015 -3.18055e-015 -1.59028e-015 -3.18055e-015 0.0163447 0.00304317 -0.000874267 1.46712e-006 -4.51303e-007 -7.61257e-008 -3.18055e-015 -1.59028e-015 -3.18055e-015 0.014564 0.0036781 -0.0032571 3.18055e-015 6.36111e-015 -0 -3.18055e-015 -1.59028e-015 -3.18055e-015 -3.72778e-006 -8.86996e-006 3.0688e-006 -6.36111e-015 1.59028e-015 -0 -12.8984 -23.969 -14.4366 -172.477 63.2072 170.996 -10.5192 1.74447 -0.294038 -0 -1.69554e-006 -0 16.2471 -32.5095 19.1995 173.368 47.5239 -170.963 12.5933 -0.151523 1.09012 3.95927e-028 -1.42648e-011 1.59028e-015 
